<?xml version="1.0" standalone="no"?>
<!DOCTYPE svg PUBLIC "-//W3C//DTD SVG 20010904//EN"
 "http://www.w3.org/TR/2001/REC-SVG-20010904/DTD/svg10.dtd">
<svg version="1.0" xmlns="http://www.w3.org/2000/svg"
 width="267.000000pt" height="290.000000pt" viewBox="0 0 267.000000 290.000000"
 preserveAspectRatio="xMidYMid meet">
<metadata>
Created by potrace 1.10, written by Peter Selinger 2001-2011
</metadata>
<g transform="translate(0.000000,290.000000) scale(0.100000,-0.100000)"
fill="#000000" stroke="none">
<path d="M616 2211 c-15 -15 -28 -41 -29 -57 -2 -20 -9 -30 -22 -32 -40 -8
-83 -34 -94 -58 -15 -33 -16 -1156 -1 -1185 17 -30 64 -49 125 -49 l55 0 0
-77 c0 -54 6 -91 19 -119 42 -91 160 -136 272 -103 67 21 102 60 164 184 l57
115 152 0 c178 0 159 11 230 -130 27 -52 58 -106 70 -119 69 -78 226 -81 313
-5 51 45 67 91 60 179 l-5 75 63 0 c53 0 68 4 93 25 34 28 44 60 44 138 0 28
-1 279 -1 555 l-1 504 -35 35 c-27 27 -41 34 -60 31 -23 -5 -26 -1 -31 34 -5
26 -17 47 -36 63 l-30 25 -673 0 -672 -1 -27 -28z m1389 -15 c14 -10 20 -28
21 -62 l2 -48 40 3 c30 2 46 -3 61 -18 21 -21 21 -28 21 -594 0 -502 -2 -575
-16 -595 -14 -20 -24 -22 -104 -22 l-88 0 9 -37 c17 -73 11 -157 -14 -194 -30
-47 -98 -79 -163 -79 -108 0 -138 27 -219 190 l-59 120 -176 0 -175 0 -58
-118 c-78 -160 -114 -192 -216 -192 -86 0 -145 31 -178 94 -11 22 -14 49 -10
105 2 42 8 84 12 94 6 15 -1 17 -81 17 -67 0 -92 4 -106 17 -17 15 -18 47 -18
599 l0 584 24 16 c15 9 40 14 63 12 l38 -3 -3 42 c-3 31 2 47 17 62 21 21 27
21 689 21 554 0 671 -2 687 -14z"/>
<path d="M660 1594 l0 -565 46 3 46 3 42 128 c46 142 71 181 138 215 66 32
136 30 216 -8 41 -19 80 -30 108 -30 l44 0 0 410 0 410 -320 0 -320 0 0 -566z
m608 154 l3 -378 -28 0 c-15 0 -55 14 -88 30 -159 79 -313 6 -371 -175 -48
-151 -54 -165 -75 -165 -18 0 -19 14 -19 535 l0 535 288 -2 287 -3 3 -377z"/>
<path d="M736 2069 c-31 -24 -32 -36 -6 -67 19 -23 20 -23 251 -22 222 1 233
2 250 21 16 19 17 24 4 49 -8 15 -25 30 -37 34 -13 3 -116 6 -229 6 -194 0
-208 -1 -233 -21z m473 -18 c8 -5 11 -16 8 -25 -6 -14 -35 -16 -237 -16 -202
0 -231 2 -237 16 -3 9 0 20 8 25 18 11 440 11 458 0z"/>
<path d="M730 1938 c-26 -28 -25 -34 6 -65 l26 -25 225 6 c124 3 229 9 234 12
25 15 28 42 8 68 l-20 26 -229 0 c-223 0 -230 -1 -250 -22z m487 -24 c3 -9 0
-20 -8 -25 -20 -13 -456 -12 -464 1 -4 6 -4 17 -1 25 4 13 44 15 236 15 202 0
231 -2 237 -16z"/>
<path d="M748 1829 c-10 -5 -23 -19 -29 -30 -9 -17 -7 -25 12 -45 22 -24 23
-24 244 -24 186 0 224 3 243 16 31 21 26 64 -8 81 -31 16 -436 18 -462 2z
m461 -28 c8 -5 11 -16 8 -25 -6 -14 -35 -16 -236 -16 -230 0 -250 3 -237 35 4
13 43 15 228 15 123 0 229 -4 237 -9z"/>
<path d="M733 1693 c-29 -28 -29 -49 0 -67 17 -11 73 -15 252 -18 l229 -3 18
31 c18 30 17 32 -2 54 -19 22 -23 23 -247 24 -224 2 -228 2 -250 -21z m477
-18 c8 -10 10 -19 4 -25 -7 -7 -330 -14 -461 -10 -7 0 -13 9 -13 19 0 11 6 22
13 24 6 3 109 6 228 6 184 1 219 -1 229 -14z"/>
<path d="M732 1567 c-28 -30 -28 -41 4 -66 21 -17 41 -21 94 -21 68 0 129 14
131 31 1 5 2 15 3 22 1 6 -7 22 -18 35 -17 20 -29 22 -106 22 -78 0 -89 -2
-108 -23z m203 -32 c0 -18 -8 -20 -89 -23 -91 -3 -113 4 -102 33 5 13 21 15
98 13 85 -3 93 -5 93 -23z"/>
<path d="M1340 1750 l0 -410 44 0 c28 0 67 11 108 30 82 39 148 40 218 5 66
-33 94 -78 140 -222 l37 -118 47 -3 46 -3 0 565 0 566 -320 0 -320 0 0 -410z
m606 -152 c-1 -520 -2 -533 -21 -533 -16 0 -25 19 -50 100 -37 118 -53 149
-95 193 -77 77 -187 92 -300 40 -35 -15 -73 -28 -86 -28 l-24 0 0 380 1 380
288 0 289 0 -2 -532z"/>
<path d="M1433 2075 c-35 -15 -44 -46 -20 -75 17 -21 14 -21 252 -21 217 0
246 4 260 40 8 21 -22 61 -48 62 -232 9 -416 7 -444 -6z m456 -24 c8 -5 11
-16 8 -25 -6 -14 -35 -16 -237 -16 -202 0 -231 2 -237 16 -3 9 0 20 8 25 18
11 440 11 458 0z"/>
<path d="M1417 1942 c-24 -26 -21 -59 6 -76 18 -13 62 -15 226 -15 112 0 205
-2 208 -5 3 -2 -89 -5 -203 -6 -227 -1 -254 -7 -254 -55 0 -50 25 -55 265 -55
219 0 222 0 243 23 29 31 28 40 -7 70 l-29 24 29 22 c35 26 36 41 6 69 -22 21
-31 22 -249 22 -205 0 -226 -2 -241 -18z m480 -28 c3 -9 0 -20 -8 -25 -18 -11
-440 -11 -458 0 -8 5 -11 16 -8 25 6 14 35 16 237 16 202 0 231 -2 237 -16z
m-2 -129 c0 -19 -8 -20 -233 -23 -207 -2 -233 -1 -239 14 -3 9 0 20 8 25 8 5
115 8 239 6 218 -2 225 -3 225 -22z"/>
<path d="M1430 1708 c-34 -18 -38 -60 -9 -87 22 -20 32 -21 246 -20 l224 2 19
25 c24 30 25 34 3 60 -17 20 -32 21 -238 27 -173 5 -225 3 -245 -7z m454 -24
c9 -3 16 -15 16 -25 0 -18 -11 -19 -240 -19 -230 0 -240 1 -240 19 0 11 6 22
13 24 18 8 432 8 451 1z"/>
<path d="M1691 1564 c-16 -20 -18 -31 -11 -45 17 -30 40 -37 127 -35 64 1 86
6 102 20 27 24 26 37 -2 64 -20 19 -35 22 -109 22 -81 0 -88 -2 -107 -26z
m204 -29 c0 -18 -8 -20 -89 -23 -91 -3 -113 4 -102 33 5 13 21 15 98 13 85 -3
93 -5 93 -23z"/>
<path d="M540 1476 l0 -566 89 0 c84 0 89 1 94 23 2 12 8 31 12 41 8 17 5 19
-35 13 -36 -5 -46 -2 -66 19 l-24 23 0 503 1 503 -36 3 -35 3 0 -565z m43 12
c2 -456 2 -467 23 -495 11 -15 36 -33 55 -40 33 -12 33 -12 -28 -12 l-63 -1 1
533 c1 292 4 521 6 507 1 -14 4 -235 6 -492z"/>
<path d="M2028 1535 l3 -505 -25 -25 c-19 -19 -31 -23 -59 -18 -42 6 -48 -2
-31 -44 l14 -33 85 0 85 0 0 565 0 565 -37 0 -38 0 3 -505z m42 -65 l0 -530
-50 0 c-27 0 -50 5 -50 10 0 6 8 10 18 10 10 0 29 12 43 26 l24 26 3 494 c1
272 5 494 7 494 3 0 5 -238 5 -530z"/>
<path d="M977 1346 c-41 -15 -82 -48 -99 -80 -6 -10 -41 -118 -79 -240 -48
-153 -70 -240 -72 -282 -4 -104 35 -144 138 -144 93 0 106 12 185 170 l70 140
200 0 200 0 70 -140 c79 -158 92 -170 185 -170 106 0 153 53 140 159 -7 52
-133 470 -155 511 -17 31 -69 69 -111 80 -50 14 -84 7 -156 -31 -52 -27 -62
-29 -173 -29 -111 0 -121 2 -173 29 -70 37 -121 45 -170 27z m142 -45 c48 -31
97 -41 202 -41 106 0 125 4 219 48 53 25 116 19 159 -16 39 -31 45 -47 116
-277 20 -66 41 -131 47 -145 12 -31 21 -91 22 -153 1 -66 -25 -86 -111 -87
-80 0 -86 6 -163 159 -32 66 -68 126 -80 134 -16 11 -60 13 -216 11 -175 -2
-199 -5 -214 -21 -10 -10 -46 -72 -79 -139 -67 -132 -80 -144 -156 -144 -85 0
-107 21 -110 105 -1 54 10 98 112 418 37 114 62 150 118 167 38 11 102 2 134
-19z"/>
<path d="M1546 1239 c-14 -17 -24 -35 -21 -40 3 -4 -9 -15 -27 -22 -18 -8 -39
-22 -47 -31 -34 -41 4 -126 56 -126 13 0 22 -3 22 -7 -4 -27 22 -64 54 -76 27
-10 77 23 84 54 3 18 15 29 40 38 37 14 64 59 55 93 -6 24 -49 58 -73 58 -12
0 -19 7 -19 20 0 29 -44 70 -74 70 -15 0 -34 -12 -50 -31z m86 -16 c23 -21 23
-36 -2 -58 -40 -36 -96 7 -70 55 13 24 47 26 72 3z m-94 -85 c26 -26 3 -88
-33 -88 -21 0 -45 29 -45 55 0 37 52 59 78 33z m186 -4 c22 -21 20 -47 -4 -69
-29 -26 -70 -7 -70 33 0 49 42 69 74 36z m-104 -33 c0 -14 -6 -19 -20 -18 -12
1 -20 8 -20 19 0 11 7 18 20 18 13 0 20 -7 20 -19z m20 -72 c9 -16 8 -26 -5
-45 -19 -29 -46 -31 -70 -4 -15 17 -16 24 -7 45 15 32 66 35 82 4z"/>
<path d="M1006 1224 c-9 -8 -16 -28 -16 -43 0 -24 -4 -28 -26 -28 -37 0 -68
-35 -60 -66 4 -18 15 -27 42 -34 28 -6 38 -14 41 -33 4 -30 31 -60 52 -60 26
1 51 25 53 52 1 16 9 25 21 26 25 1 67 41 67 61 -1 27 -26 50 -56 53 -23 1
-30 7 -32 26 -5 57 -50 82 -86 46z m52 -57 l3 -46 47 -3 c34 -2 47 -7 47 -18
0 -11 -13 -16 -48 -18 -48 -3 -48 -4 -47 -35 3 -51 1 -57 -20 -57 -17 0 -20 7
-20 44 l0 45 -47 3 c-35 2 -48 7 -48 18 0 11 13 16 48 18 l47 3 0 43 c0 23 3
46 7 50 16 15 28 -3 31 -47z"/>
<path d="M990 25 c-7 -9 -9 -19 -5 -23 4 -4 9 -3 11 3 3 6 54 8 141 5 76 -3
140 -4 142 -3 2 1 -2 9 -9 18 -18 22 -262 22 -280 0z"/>
</g>
</svg>
